<?xml version="1.0" standalone="no"?>
<!DOCTYPE svg PUBLIC "-//W3C//DTD SVG 20010904//EN"
 "http://www.w3.org/TR/2001/REC-SVG-20010904/DTD/svg10.dtd">
<svg version="1.0" xmlns="http://www.w3.org/2000/svg"
 width="400.000000pt" height="400.000000pt" viewBox="0 0 400.000000 400.000000"
 preserveAspectRatio="xMidYMid meet">

<g transform="translate(0.000000,400.000000) scale(0.100000,-0.100000)"
fill="#000000" stroke="none">
<path d="M777 3922 c-21 -43 -37 -81 -37 -85 0 -4 -19 -31 -43 -60 -45 -56
-78 -118 -172 -327 -86 -194 -165 -445 -148 -473 3 -7 20 -29 36 -49 l30 -38
-17 -100 c-9 -56 -21 -156 -26 -223 -15 -182 -4 -1297 14 -1530 11 -140 12
-203 5 -245 -19 -99 -67 -235 -109 -305 -23 -37 -48 -86 -56 -109 -15 -44 -96
-164 -127 -189 -28 -23 -3 -35 29 -14 25 16 26 16 19 -6 -16 -49 40 8 150 154
61 80 111 142 113 137 6 -16 -78 -252 -112 -317 -19 -34 -31 -63 -29 -63 3 0
24 19 47 42 23 24 79 74 125 112 45 39 118 109 162 156 57 63 103 102 166 140
50 31 120 86 162 128 l75 75 28 -34 c60 -71 134 -140 156 -145 31 -9 28 -22
-17 -60 -45 -39 -84 -115 -101 -199 -7 -33 -18 -68 -26 -80 -7 -11 -20 -48
-30 -81 l-17 -61 -71 -33 c-67 -30 -79 -54 -17 -32 16 6 34 6 42 1 19 -12 426
-12 434 1 3 5 13 6 21 3 9 -3 20 0 24 8 7 11 10 10 16 -4 5 -14 21 -17 104
-17 l98 0 115 59 c64 32 133 72 155 89 l39 32 7 -41 c4 -22 3 -63 0 -91 -6
-45 -5 -50 12 -46 17 3 19 14 22 86 2 53 -3 100 -13 134 -10 35 -12 55 -5 62
5 5 10 7 10 3 0 -14 63 25 109 67 25 23 80 68 121 98 41 31 105 84 143 118 37
34 67 59 67 55 0 -3 -9 -24 -21 -46 -36 -71 -20 -75 52 -16 76 63 114 109 179
216 l47 78 -3 -51 c-1 -28 -7 -84 -13 -125 -11 -73 -9 -93 8 -75 11 11 80 231
122 389 17 66 33 122 36 125 2 2 20 -13 39 -35 23 -26 37 -35 40 -27 13 30 21
-3 16 -67 -4 -67 12 -171 28 -171 4 0 10 -31 14 -69 4 -37 17 -97 30 -133 l23
-66 -70 -63 c-38 -34 -64 -53 -58 -40 7 12 10 25 7 28 -3 3 -16 -20 -30 -51
-34 -76 -40 -83 -201 -228 -77 -69 -156 -142 -174 -162 l-35 -36 131 0 c93 0
134 4 139 12 5 7 11 35 15 63 4 27 9 57 10 65 3 11 -6 16 -33 18 -21 2 -38 6
-38 10 0 9 84 91 144 141 36 30 42 32 99 28 35 -2 63 -9 65 -16 2 -6 -11 -37
-30 -69 -42 -70 -72 -148 -65 -167 3 -7 25 -17 49 -22 37 -7 43 -12 46 -36 l3
-27 430 0 c413 0 429 1 429 19 0 10 8 29 19 42 l18 22 31 -21 c17 -13 33 -32
35 -45 2 -12 5 93 6 234 l1 256 -32 64 c-38 73 -115 159 -144 159 -10 0 -30
12 -43 25 -13 14 -30 25 -38 25 -8 0 -32 13 -52 29 -21 17 -56 36 -79 43 -42
13 -52 28 -52 80 0 15 -7 48 -16 74 l-16 47 84 82 c100 99 136 160 148 252 5
38 16 95 24 128 9 33 16 74 16 92 0 25 4 30 18 26 41 -10 69 32 116 175 68
212 68 210 62 567 -2 176 -5 329 -5 340 -1 11 2 91 5 179 6 153 5 161 -19 225
-21 55 -26 90 -31 206 -6 159 -18 236 -48 303 -22 52 -31 176 -17 227 5 17 15
56 22 88 l14 57 -189 0 c-103 0 -188 -3 -188 -7 0 -4 9 -39 20 -78 11 -39 21
-89 23 -111 2 -21 9 -50 17 -64 9 -15 15 -53 15 -92 0 -53 5 -72 23 -97 15
-21 22 -43 20 -66 -1 -19 1 -37 5 -41 3 -4 -6 -22 -20 -41 -31 -40 -26 -51 10
-23 32 25 49 25 72 0 10 -12 25 -19 33 -18 19 4 122 -98 122 -121 0 -17 -18
-41 -31 -41 -4 0 -20 22 -34 48 -17 31 -42 58 -66 73 -22 13 -47 30 -55 37 -9
9 -17 10 -26 3 -7 -6 -28 -22 -45 -37 -66 -52 -69 -149 -6 -204 33 -29 40 -31
95 -28 l60 3 -6 -27 c-3 -16 -13 -39 -21 -52 l-16 -24 -82 81 c-45 44 -95 86
-112 93 -64 29 -66 33 -56 125 4 46 9 71 10 54 2 -48 12 -75 28 -75 10 0 12 8
8 34 -5 22 -3 36 6 42 7 4 14 3 17 -4 6 -18 22 -4 22 19 0 11 -21 71 -46 132
-25 62 -46 117 -45 122 5 135 4 141 -23 194 -19 39 -25 63 -21 83 4 15 11 28
16 28 9 0 49 59 49 73 0 4 -73 7 -162 6 -90 -1 -157 -4 -150 -6 6 -3 12 -14
12 -25 0 -26 -24 -18 -28 10 -2 14 -11 22 -22 22 -13 0 -17 -5 -13 -19 3 -13
-5 -26 -26 -42 -17 -12 -31 -28 -31 -35 0 -6 -12 -37 -26 -69 -24 -52 -26 -66
-23 -158 l4 -102 -25 -3 c-32 -4 -60 40 -60 92 0 20 -5 55 -12 79 -13 52 -5
106 23 141 20 25 23 26 44 12 22 -14 23 -14 28 10 2 14 0 41 -6 60 l-10 34
-109 0 c-68 0 -107 -4 -103 -10 13 -21 -25 -69 -65 -81 -49 -15 -82 3 -101 56
-12 33 -15 35 -61 35 -57 0 -63 -16 -23 -70 14 -19 21 -36 15 -38 -11 -4 -14
-75 -3 -85 3 -4 15 0 25 10 17 15 18 15 17 -3 0 -10 -4 -28 -9 -39 -5 -14 -2
-30 12 -52 12 -21 15 -33 8 -33 -8 0 -9 -10 -5 -28 12 -57 -58 -79 -130 -42
-75 39 -165 92 -171 101 -3 5 -14 7 -25 4 -18 -6 -19 -3 -13 33 4 27 1 49 -11
73 -27 53 -36 61 -51 48 -22 -18 -28 14 -10 49 14 28 14 31 -8 51 -20 19 -33
21 -159 21 l-137 0 7 -61 c5 -50 4 -61 -8 -57 -8 3 -19 28 -26 57 -6 29 -13
54 -15 56 -2 3 -17 1 -34 -4 -24 -7 -29 -12 -26 -35 4 -40 -29 -31 -42 12 -9
31 -10 32 -68 32 -37 0 -57 -4 -53 -10 3 -5 2 -10 -4 -10 -5 0 -12 4 -15 9 -8
12 -335 11 -342 0 -7 -12 -74 -11 -74 1 0 6 -71 10 -193 10 l-194 0 -36 -78z
m1361 44 c19 -19 38 -124 26 -144 -22 -34 -57 -37 -116 -10 l-55 26 -7 66 c-4
36 -4 70 -1 76 9 15 135 3 153 -14z m1110 -51 c0 -16 -2 -15 -8 5 -4 14 -8 34
-8 45 0 16 2 15 8 -5 4 -14 8 -34 8 -45z m-1875 9 c9 -3 17 -12 17 -20 0 -16
16 -19 25 -4 3 6 15 10 25 10 24 0 70 -21 70 -31 0 -5 -17 -24 -39 -44 -31
-29 -41 -47 -50 -92 -6 -31 -8 -59 -5 -62 3 -3 40 -16 82 -28 65 -19 70 -22
32 -18 -25 2 -64 7 -87 11 l-41 6 -13 -56 c-7 -31 -9 -59 -6 -62 11 -11 82 -6
145 10 33 9 69 16 81 16 22 0 46 34 36 50 -3 6 -2 10 3 10 5 0 12 11 14 25 6
30 -4 34 -112 38 -69 3 -67 3 23 5 l97 2 23 47 c25 54 79 95 117 91 38 -5 35
-29 -9 -77 -55 -59 -58 -74 -24 -116 42 -52 58 -46 83 30 26 79 63 112 104 94
32 -15 32 -22 2 -62 -13 -18 -26 -44 -30 -59 -3 -14 -9 -33 -12 -41 -8 -23 47
-31 109 -17 74 17 77 20 99 77 23 62 44 72 96 46 53 -26 56 -61 7 -87 -45 -25
-60 -49 -45 -76 13 -24 47 -43 64 -37 7 3 18 26 25 50 13 56 33 77 71 77 44 0
55 -29 30 -77 -11 -21 -22 -53 -26 -70 -6 -30 -4 -32 30 -38 20 -4 36 -11 36
-15 0 -5 9 -12 21 -15 11 -4 18 -9 16 -12 -3 -2 -26 3 -51 11 -26 9 -53 16
-60 16 -10 0 -46 -98 -46 -125 0 -3 16 -13 35 -21 27 -11 45 -12 70 -5 35 9
51 -3 20 -15 -12 -5 -13 -9 -3 -21 10 -13 6 -14 -28 -8 -21 4 -52 14 -68 21
-35 17 -37 14 -62 -60 -18 -54 -16 -58 44 -75 22 -7 46 -6 75 3 41 11 43 13
66 86 13 41 37 104 55 139 17 35 30 69 28 75 -2 6 7 32 19 59 l23 49 46 -7
c25 -4 48 -9 53 -12 17 -10 5 -33 -33 -63 -44 -35 -46 -45 -13 -67 20 -14 23
-12 38 17 21 40 98 78 121 60 21 -18 18 -28 -21 -71 -19 -22 -35 -43 -35 -49
0 -10 82 -49 114 -54 11 -1 22 -8 23 -13 8 -24 -17 -21 -71 8 -32 17 -61 27
-65 23 -8 -9 -41 -133 -41 -154 0 -6 30 -25 67 -41 58 -27 70 -29 92 -18 22
10 71 19 71 12 0 -1 -5 -14 -10 -29 -8 -20 -6 -47 7 -105 10 -44 21 -79 24
-79 8 0 29 80 29 110 0 13 -5 20 -12 17 -7 -2 -12 -11 -10 -20 1 -8 -2 -18 -8
-22 -6 -4 -10 8 -10 30 0 32 2 35 24 29 22 -5 25 0 44 56 22 62 21 85 -3 94
-21 8 -38 -21 -31 -54 5 -28 4 -30 -14 -20 -24 13 -26 44 -5 84 8 15 15 35 15
44 0 10 9 5 26 -16 15 -18 31 -32 36 -32 5 0 15 15 23 33 20 48 38 61 65 47
14 -8 20 -18 16 -28 -32 -97 -32 -103 -6 -124 14 -11 34 -26 44 -34 11 -7 17
-16 14 -20 -4 -3 -24 6 -44 20 -21 14 -41 22 -45 18 -4 -4 -12 -31 -17 -60 -9
-52 -9 -52 23 -72 18 -11 37 -20 44 -20 14 0 15 -17 1 -25 -6 -3 -13 0 -16 9
-8 20 -64 39 -69 23 -2 -7 -11 -43 -20 -81 l-16 -70 23 -18 c31 -23 46 -22 68
5 10 12 21 19 25 15 4 -3 -3 -16 -14 -27 -12 -12 -21 -25 -21 -31 0 -14 -22
-12 -44 5 -33 25 -44 17 -61 -41 -12 -42 -13 -59 -5 -69 20 -24 48 -27 75 -9
25 16 35 8 14 -13 -14 -14 -5 -43 14 -43 13 0 37 60 37 92 0 8 13 35 29 60 45
70 105 235 107 293 1 28 2 67 3 88 1 30 6 39 25 47 33 12 62 3 82 -28 16 -25
16 -26 -25 -63 -44 -41 -55 -79 -21 -79 16 0 20 7 20 35 0 19 5 35 11 35 8 0
10 -14 6 -40 -4 -28 -1 -45 10 -55 21 -22 41 -18 49 8 9 32 34 57 57 57 21 0
21 -18 2 -106 -6 -25 -1 -37 29 -73 44 -53 46 -61 5 -27 -17 14 -34 26 -38 26
-5 0 -16 -32 -26 -72 l-17 -72 31 -27 c18 -14 50 -35 71 -45 24 -11 40 -26 40
-36 0 -20 -20 -25 -20 -5 -1 6 -28 29 -62 50 -71 45 -71 44 -89 -57 -12 -67
-12 -69 10 -87 17 -14 28 -16 47 -9 34 13 39 13 24 -5 -10 -12 -10 -18 0 -30
7 -8 19 -15 26 -15 8 0 14 -4 14 -10 0 -14 -11 -12 -34 5 -11 8 -26 15 -33 15
-7 0 -22 9 -34 21 -32 32 -44 19 -47 -50 l-3 -62 36 -14 c49 -21 48 -47 -1
-33 -20 5 -38 7 -41 5 -2 -3 -7 -24 -10 -46 -3 -23 -11 -41 -17 -41 -7 0 -27
15 -45 34 -29 30 -32 38 -30 86 2 42 -1 55 -16 66 -29 22 -33 17 -24 -28 4
-24 4 -47 -1 -52 -4 -4 -33 11 -65 34 -60 44 -83 83 -64 106 9 11 8 14 -1 14
-9 0 -11 10 -7 34 6 36 -6 56 -33 56 -9 0 -25 9 -35 20 -32 36 -53 26 -70 -35
-9 -30 -19 -55 -22 -55 -3 0 -21 10 -40 21 -27 17 -33 26 -29 43 4 11 9 40 13
64 5 35 2 45 -13 57 -29 22 -34 18 -35 -27 -1 -24 -4 -55 -8 -70 l-6 -27 -40
22 c-43 24 -47 42 -30 113 7 30 6 32 -60 63 -78 38 -89 33 -81 -36 3 -24 2
-43 -3 -43 -5 0 -29 15 -53 33 -29 23 -43 41 -44 58 -1 44 -14 78 -34 89 -17
9 -22 7 -30 -15 -6 -15 -10 -33 -10 -41 0 -8 -5 -14 -11 -14 -22 0 -49 21 -49
38 0 10 -5 23 -10 28 -7 7 -8 25 -1 55 11 50 8 58 -19 41 -24 -15 -96 -16
-105 -2 -10 15 -35 12 -35 -5 0 -11 -11 -15 -37 -15 -51 0 -67 12 -67 51 -1
37 -26 54 -26 17 0 -36 -19 -48 -72 -48 -42 0 -48 3 -48 21 0 11 8 34 17 50 9
15 14 31 11 34 -10 10 -180 45 -189 39 -5 -3 -9 -18 -9 -35 0 -34 -8 -36 -58
-10 -35 18 -38 23 -34 54 3 29 0 35 -20 40 -43 12 -48 9 -48 -33 0 -49 -12
-50 -62 -7 -29 26 -36 38 -33 65 1 18 5 35 9 39 6 7 9 43 2 43 -1 0 -17 -5
-35 -11 -35 -12 -40 -25 -13 -33 30 -8 -81 5 -132 16 -52 11 -71 1 -61 -34 3
-10 8 -27 11 -38 6 -18 2 -20 -55 -20 -56 0 -61 2 -67 25 -3 14 -3 41 0 60 6
30 4 35 -13 35 -29 0 -33 -15 -16 -56 19 -45 19 -54 1 -54 -8 0 -24 17 -36 37
-22 38 -23 72 -5 176 8 41 8 41 -68 31 -45 -6 -46 -7 -56 -53 -5 -25 -8 -48
-5 -50 3 -3 25 1 51 7 25 7 47 11 49 9 2 -1 1 -13 -3 -25 -4 -17 -13 -22 -37
-22 -59 0 -75 -10 -87 -52 -6 -22 -7 -58 -4 -79 l7 -39 -46 0 c-41 0 -48 3
-57 27 -6 17 -7 42 -1 70 5 24 7 45 3 46 -3 2 -33 1 -66 -2 -59 -6 -60 -6 -59
-36 1 -16 5 -41 9 -54 14 -42 -30 -7 -55 43 -11 25 -26 46 -32 48 -7 3 -8 10
0 23 12 24 42 158 37 164 -3 2 -16 -4 -31 -13 -29 -20 -38 -17 -28 8 4 9 20
20 36 23 31 6 48 34 48 80 0 24 -1 25 -17 11 -68 -58 -49 1 20 63 55 50 60 76
7 39 -17 -12 -33 -20 -36 -17 -6 5 41 154 56 177 17 26 11 -6 -10 -61 -12 -28
-19 -54 -16 -56 16 -16 86 64 86 98 0 7 9 32 20 55 20 41 66 74 104 74 24 0
19 -36 -8 -53 -16 -11 -28 -35 -40 -83 -10 -38 -13 -71 -8 -76 5 -5 26 -5 48
0 39 8 39 8 66 91 31 96 51 123 87 119 30 -3 30 -10 5 -111 -9 -37 -14 -71
-10 -74 8 -8 106 37 106 49 0 4 6 8 13 8 7 0 17 24 24 61 15 79 32 97 91 98
26 0 55 -2 65 -5z m1733 -142 c1 -54 6 -78 30 -122 37 -71 40 -80 14 -50 -48
56 -79 166 -60 214 5 14 11 26 12 26 2 0 3 -30 4 -68z m644 -161 c57 -51 63
-60 51 -75 -7 -9 -20 -16 -27 -16 -8 0 -14 -4 -14 -10 0 -20 -35 -9 -67 22
-28 27 -33 39 -33 78 0 77 6 77 90 1z m-297 -93 c8 -18 17 -58 20 -88 6 -50 5
-52 -6 -25 -7 17 -20 44 -30 62 -18 33 -22 65 -10 76 10 11 12 9 26 -25z
m-209 6 c5 -14 4 -15 -9 -4 -17 14 -19 20 -6 20 5 0 12 -7 15 -16z m-40 -29
c-4 -8 -13 -15 -21 -15 -13 0 -13 3 -3 15 7 8 16 15 21 15 5 0 6 -7 3 -15z
m620 7 c2 -4 1 -14 -4 -22 -7 -11 -12 -12 -21 -3 -6 6 -8 16 -5 22 8 13 23 14
30 3z m-664 -66 c-5 -15 -10 -44 -11 -64 l-1 -37 -9 32 c-7 24 -5 42 6 69 17
42 31 41 15 0z m-690 -6 c0 -5 -5 -10 -11 -10 -5 0 -7 5 -4 10 3 6 8 10 11 10
2 0 4 -4 4 -10z m1407 -22 c23 -22 31 -48 14 -48 -9 0 -51 52 -51 64 0 12 14
6 37 -16z m-861 -90 c4 -6 -1 -17 -11 -25 -27 -19 -33 -16 -27 12 5 26 26 33
38 13z m701 -20 c81 -65 91 -98 47 -156 -25 -32 -30 -34 -68 -29 -84 12 -116
103 -57 166 31 33 53 38 78 19z m-3097 -88 c-12 -23 -30 -27 -30 -7 0 17 10
27 27 27 11 0 11 -5 3 -20z m5 -173 c1 -76 26 -134 89 -200 57 -59 93 -77 160
-80 65 -2 89 12 63 40 -17 20 -9 21 188 23 l70 1 -37 15 c-21 9 -38 20 -38 25
0 5 -6 9 -13 9 -18 0 -94 66 -86 74 9 10 156 -81 174 -107 8 -11 18 -18 21
-14 4 4 -1 17 -12 28 l-19 22 35 -7 c19 -4 55 -10 79 -13 l43 -6 -17 26 c-21
33 -19 33 42 3 26 -13 74 -32 107 -41 56 -18 59 -18 92 0 33 17 38 18 112 2
43 -10 90 -17 105 -17 20 0 45 -17 91 -59 66 -61 139 -101 186 -101 26 0 28
-3 44 -87 9 -48 32 -122 51 -164 36 -83 57 -149 47 -149 -20 0 -89 24 -102 35
-15 12 -88 38 -257 90 -83 25 -190 44 -251 45 -37 0 -52 -22 -33 -51 9 -15 8
-19 -4 -19 -8 0 -23 -4 -33 -10 -9 -5 -29 -14 -44 -20 -46 -16 -34 -32 19 -24
l46 7 -22 -36 c-21 -34 -61 -139 -61 -161 0 -5 21 10 46 34 28 27 44 37 40 26
-13 -37 -19 -133 -8 -140 5 -3 26 32 47 82 55 128 69 149 111 157 19 3 43 9
52 13 9 3 0 -9 -21 -28 -55 -48 -71 -84 -71 -166 -1 -62 2 -75 27 -107 42 -55
75 -68 172 -68 74 0 91 4 130 26 25 15 45 22 45 17 0 -14 -55 -59 -101 -82
-53 -28 -54 -35 -3 -35 29 0 44 4 44 12 0 7 12 13 26 13 45 0 64 17 63 58 0
20 1 53 3 72 3 19 5 53 7 75 2 36 3 38 12 17 5 -13 6 -36 3 -50 l-5 -27 26 30
c39 45 87 135 81 151 -4 10 3 14 23 14 23 0 31 -7 41 -31 17 -40 137 -206 208
-287 l55 -63 -17 -82 c-60 -286 -196 -712 -295 -919 -22 -48 -41 -92 -41 -97
0 -5 -4 -13 -10 -16 -5 -3 -7 0 -4 9 9 24 -75 13 -211 -29 -235 -73 -522 -135
-625 -135 -65 0 -116 14 -146 42 -11 10 -43 51 -70 91 -27 39 -94 128 -149
197 -222 275 -275 413 -298 766 -7 99 -10 188 -9 198 3 14 10 17 33 12 32 -6
32 -7 -6 50 -16 23 -25 62 -35 148 l-13 117 28 59 c16 33 34 60 41 60 9 0 8
-9 -4 -32 -19 -38 -27 -137 -17 -203 6 -47 47 -105 88 -126 34 -19 93 -21 107
-4 19 23 30 18 30 -14 0 -46 -20 -91 -82 -183 -65 -97 -73 -138 -37 -179 18
-21 20 -21 14 -4 -3 10 -8 37 -11 60 -5 37 -1 45 44 96 50 58 58 73 86 168 20
66 20 118 1 198 -30 128 -149 322 -234 383 -17 11 -47 24 -66 27 -34 5 -35 5
-35 -26 0 -17 -4 -31 -8 -31 -5 0 -15 52 -22 116 -18 168 2 423 40 512 28 63
45 55 45 -21z m98 -89 c12 -8 39 -25 61 -38 l38 -23 -12 22 c-19 37 -6 34 50
-11 50 -41 51 -43 26 -46 -14 -2 -26 -8 -26 -13 0 -16 -13 -10 -75 30 -33 22
-62 38 -64 36 -2 -3 7 -19 21 -37 44 -60 40 -64 -10 -11 -48 50 -89 134 -76
155 4 6 15 -3 26 -20 10 -17 29 -37 41 -44z m-266 5 c-3 -10 -5 -4 -5 12 0 17
2 24 5 18 2 -7 2 -21 0 -30z m698 -53 c3 -5 2 -10 -4 -10 -5 0 -13 5 -16 10
-3 6 -2 10 4 10 5 0 13 -4 16 -10z m2745 -22 c0 -16 -3 -19 -11 -11 -6 6 -8
16 -5 22 11 17 16 13 16 -11z m-3440 -293 c-6 -82 -15 -305 -21 -495 -5 -189
-12 -346 -14 -349 -3 -2 -5 153 -5 345 0 350 9 533 33 654 10 56 12 60 15 30
2 -19 -1 -102 -8 -185z m1738 -135 c11 -30 48 -117 82 -194 33 -76 59 -141 56
-143 -14 -14 -120 220 -157 346 -22 76 -10 70 19 -9z m1362 -92 c0 -29 5 -71
10 -93 6 -26 6 -51 -1 -72 -8 -24 -6 -43 7 -83 26 -78 8 -84 -61 -19 -64 61
-64 51 -9 191 19 48 34 97 34 108 0 11 5 20 10 20 6 0 10 -24 10 -52z m-1626
-127 c23 -25 13 -59 -19 -67 -44 -11 -74 29 -49 64 19 27 45 28 68 3z m-1095
-27 c30 -39 28 -64 -7 -64 -33 0 -52 16 -52 45 0 21 17 45 31 45 4 0 17 -12
28 -26z m1675 -14 c15 -23 26 -53 25 -72 0 -36 1 -39 -38 60 -11 28 -19 52
-17 52 2 0 15 -18 30 -40z m619 -99 c25 -23 59 -72 82 -118 38 -75 40 -82 39
-168 -2 -159 -34 -226 -186 -383 -68 -70 -71 -72 -85 -52 -8 11 -25 20 -40 20
-23 0 -25 3 -19 32 3 17 9 69 13 115 6 80 14 105 28 83 3 -5 11 -10 18 -10 6
0 1 7 -12 16 -23 16 -23 20 -15 88 5 39 8 139 6 222 l-2 152 42 21 c60 30 82
27 131 -18z m-1245 -77 c14 -10 22 -25 22 -45 0 -28 -2 -29 -44 -29 -60 0 -76
8 -76 36 0 24 33 54 60 54 9 0 26 -7 38 -16z m-1030 -6 c35 -35 -17 -81 -65
-59 -42 19 -23 71 27 71 14 0 31 -5 38 -12z m-415 -733 c4 -146 2 -212 -3
-180 -5 28 -11 158 -14 290 -3 149 -2 217 3 180 5 -32 11 -163 14 -290z m2487
-44 c0 -29 -16 -51 -37 -51 -19 0 -16 50 3 71 21 23 34 16 34 -20z m-797 -556
c-3 -9 -8 -14 -10 -11 -3 3 -2 9 2 15 9 16 15 13 8 -4z m-17 -27 c4 -6 3 -8
-3 -5 -10 6 -43 -10 -121 -58 -36 -22 -37 -38 -2 -43 13 -2 29 -10 36 -17 8
-7 19 -15 25 -17 7 -2 0 -25 -18 -61 l-30 -58 -11 33 c-7 18 -9 22 -6 8 15
-72 16 -90 6 -90 -10 0 -44 94 -57 159 -4 18 -16 42 -26 52 -10 10 -19 28 -19
38 0 11 -3 26 -6 35 -4 10 -1 16 9 16 9 0 18 -9 22 -20 5 -16 10 -18 31 -8 13
6 24 15 24 19 0 4 10 7 23 7 12 0 40 5 62 10 55 13 53 13 61 0z m-241 -64 c9
-25 16 -47 14 -48 -4 -3 -117 -26 -128 -26 -3 0 -6 22 -7 49 0 49 0 50 35 59
62 17 67 15 86 -34z m1811 34 c-2 -7 -15 -44 -28 -83 l-23 -70 -5 51 c-3 28
-11 59 -19 68 -12 14 -9 18 20 31 42 18 62 19 55 3z m-1595 -45 c-12 -20 -14
-14 -5 12 4 9 9 14 11 11 3 -2 0 -13 -6 -23z m1439 -165 c-20 -91 -5 -119 75
-139 54 -14 110 -37 110 -46 0 -4 -12 -28 -25 -53 l-25 -45 -3 47 c-4 57 -13
64 -109 81 -64 12 -67 14 -74 44 -3 18 -2 30 2 27 5 -3 9 4 9 15 0 38 -37 21
-55 -26 -19 -48 -30 -54 -41 -21 -5 18 1 29 33 58 41 35 58 62 90 135 l17 40
4 -30 c2 -16 -2 -55 -8 -87z m-420 86 c0 -3 -9 -18 -20 -34 -11 -15 -24 -39
-29 -52 -8 -21 -18 -26 -58 -31 -26 -3 -50 -3 -52 -1 -8 7 53 66 98 95 44 29
61 35 61 23z m-1390 -93 c0 -5 -4 -11 -8 -13 -4 -1 -28 -29 -52 -61 -25 -31
-46 -53 -48 -47 -2 5 12 29 31 52 18 24 37 51 40 61 7 17 37 24 37 8z m1990
-68 c13 -13 13 -15 -5 -10 -11 3 -39 11 -62 17 -45 11 -51 18 -32 37 12 12 69
-13 99 -44z m-220 -142 c6 -12 26 -22 50 -26 41 -7 51 -23 26 -44 -8 -7 -22
-28 -31 -47 -12 -27 -22 -34 -38 -32 -19 3 -23 12 -28 58 -4 30 -10 67 -14 83
-6 21 -4 27 9 27 8 0 20 -9 26 -19z m-474 -78 c-10 -10 -19 5 -10 18 6 11 8
11 12 0 2 -7 1 -15 -2 -18z m807 -57 c1 -31 1 -56 0 -56 -11 0 -53 25 -53 32
0 15 41 90 46 85 3 -3 6 -30 7 -61z m-160 12 c8 -27 1 -38 -24 -38 -22 0 -24
12 -7 40 16 26 24 25 31 -2z m-943 2 c0 -6 -7 -25 -16 -41 -11 -22 -20 -29
-32 -24 -9 4 -36 10 -60 12 l-43 6 27 28 c23 24 36 29 76 29 27 0 48 -5 48
-10z"/>
<path d="M1313 3832 c-18 -16 -35 -45 -43 -71 -11 -40 -10 -46 6 -58 28 -20
38 -11 47 43 4 27 12 62 17 78 5 16 8 31 7 33 -2 1 -17 -10 -34 -25z"/>
<path d="M1169 3724 c-12 -14 -11 -16 5 -13 11 2 21 10 24 17 5 17 -13 15 -29
-4z"/>
<path d="M1051 3630 c-20 -93 -20 -93 52 -60 63 30 87 60 74 94 -5 12 -20 16
-61 16 l-54 0 -11 -50z"/>
<path d="M925 3662 c-34 -7 -82 -51 -89 -80 -3 -15 -8 -37 -12 -50 -6 -22 -5
-23 32 -16 59 10 67 17 85 83 18 64 17 70 -16 63z"/>
<path d="M1239 3644 c-7 -20 -6 -32 6 -50 22 -33 32 -30 44 14 16 54 14 62
-14 62 -18 0 -28 -7 -36 -26z"/>
<path d="M1737 3625 c-4 -9 -1 -18 9 -22 22 -8 30 5 12 23 -14 14 -16 14 -21
-1z"/>
<path d="M1220 3566 c0 -16 27 -29 42 -20 7 5 4 12 -7 21 -24 17 -35 17 -35
-1z"/>
<path d="M1720 3561 c0 -17 54 -61 74 -61 4 0 11 12 17 27 13 34 -8 53 -58 53
-26 0 -33 -4 -33 -19z"/>
<path d="M2046 3561 c-3 -5 1 -12 10 -15 24 -9 31 -7 38 9 4 11 -1 15 -19 15
-13 0 -26 -4 -29 -9z"/>
<path d="M1897 3504 c-8 -27 -11 -53 -7 -58 5 -4 45 -3 91 3 45 6 85 11 89 11
4 0 10 14 12 31 6 38 -7 45 -99 54 l-72 7 -14 -48z"/>
<path d="M1533 3527 c-24 -5 -43 -13 -43 -17 0 -5 96 -40 112 -40 5 0 28 55
28 66 0 7 -54 2 -97 -9z"/>
<path d="M1078 3523 c-40 -4 -51 -17 -63 -70 -9 -46 12 -43 76 10 57 46 71 68
42 65 -10 -1 -35 -3 -55 -5z"/>
<path d="M1225 3506 c21 -32 37 -34 33 -3 -2 14 -11 23 -26 25 -23 4 -23 3 -7
-22z"/>
<path d="M1705 3510 c-3 -6 6 -15 21 -20 41 -16 54 -6 17 13 -20 11 -34 13
-38 7z"/>
<path d="M1365 3499 c-3 -4 -8 -27 -11 -52 l-6 -45 40 -7 c23 -3 71 -17 108
-30 38 -13 71 -22 75 -20 4 3 9 16 12 31 4 25 3 26 -34 22 -45 -4 -39 5 14 22
40 12 49 35 18 45 -48 15 -212 41 -216 34z"/>
<path d="M2160 3472 c-5 -20 -13 -54 -16 -74 -6 -34 -4 -39 21 -48 34 -13 40
-9 58 43 8 23 18 50 22 59 5 13 -3 22 -34 37 l-40 21 -11 -38z"/>
<path d="M831 3491 c-16 -4 -29 -21 -41 -54 -10 -26 -15 -48 -12 -50 4 -2 31
1 59 6 49 8 53 11 63 45 5 20 10 43 10 50 0 13 -38 15 -79 3z"/>
<path d="M1190 3475 c-14 -37 -13 -43 10 -50 41 -13 51 13 20 52 l-20 25 -10
-27z"/>
<path d="M1694 3469 c-10 -16 6 -84 28 -120 l21 -34 19 55 c10 30 17 61 16 69
-4 18 -75 44 -84 30z"/>
<path d="M1950 3420 c0 -6 10 -15 23 -21 21 -9 21 -9 -3 -4 -99 21 -96 21
-109 -28 -19 -76 -16 -83 35 -97 38 -11 53 -11 92 1 49 16 56 28 75 127 l7 32
-60 0 c-35 0 -60 -4 -60 -10z"/>
<path d="M1170 3394 c0 -17 23 -44 38 -44 15 0 23 43 9 52 -21 13 -47 9 -47
-8z"/>
<path d="M1667 3384 c-4 -4 -7 -18 -7 -31 0 -17 6 -23 21 -23 16 0 19 4 14 23
-9 28 -19 39 -28 31z"/>
<path d="M2581 3367 c-15 -39 -14 -45 5 -19 8 12 13 28 11 35 -3 6 -10 -1 -16
-16z"/>
<path d="M820 3370 c-8 -5 -25 -10 -37 -10 -23 0 -27 -9 -39 -74 l-7 -38 44 6
c97 15 98 15 105 51 9 50 2 70 -26 73 -14 1 -32 -2 -40 -8z"/>
<path d="M1330 3355 c-6 -15 -10 -41 -10 -59 0 -29 4 -34 31 -40 54 -10 90 -7
150 15 67 24 81 54 32 65 -16 3 -53 12 -83 19 -118 28 -109 28 -120 0z"/>
<path d="M2620 3350 c0 -5 -13 -16 -29 -24 -47 -25 -69 -116 -32 -135 14 -8
22 -7 30 3 16 19 61 153 53 160 -9 9 -22 7 -22 -4z"/>
<path d="M1168 3319 c-24 -13 -23 -25 3 -32 13 -3 22 0 26 9 8 22 -9 35 -29
23z"/>
<path d="M2118 3313 c-5 -21 2 -50 19 -78 14 -25 26 -14 43 39 10 31 10 40 -1
47 -8 4 -16 3 -20 -3 -4 -7 -9 -7 -13 1 -10 16 -23 13 -28 -6z"/>
<path d="M1646 3312 c-2 -4 -7 -22 -11 -41 -6 -29 -3 -37 25 -62 17 -16 35
-29 40 -29 13 0 34 100 23 111 -13 13 -72 29 -77 21z"/>
<path d="M1836 3248 c-4 -17 -22 -69 -30 -89 -8 -18 35 -34 125 -44 l56 -7 12
48 c13 52 9 59 -39 70 -14 3 -39 12 -57 20 -38 17 -63 18 -67 2z"/>
<path d="M1991 3251 c-11 -7 -10 -11 7 -20 15 -8 21 -7 25 3 9 24 -7 32 -32
17z"/>
<path d="M2100 3222 c0 -12 8 -23 21 -27 31 -10 32 -1 4 25 -25 23 -25 23 -25
2z"/>
<path d="M1622 3198 c3 -7 13 -15 24 -17 16 -3 17 -1 5 13 -16 19 -34 21 -29
4z"/>
<path d="M2087 3183 c-12 -11 -7 -67 7 -92 13 -23 14 -23 24 -5 5 10 13 33 16
51 6 26 3 34 -13 42 -23 13 -26 13 -34 4z"/>
<path d="M2540 3156 c0 -8 -4 -18 -10 -21 -6 -3 -7 1 -4 9 3 9 2 16 -4 16 -11
0 -22 -56 -22 -112 0 -27 -4 -38 -15 -38 -17 0 -45 -49 -45 -78 0 -11 11 -27
25 -36 24 -16 24 -16 34 22 6 20 12 48 13 62 2 14 5 27 8 30 11 10 58 149 52
154 -11 11 -32 6 -32 -8z m-63 -228 c-3 -7 -5 -2 -5 12 0 14 2 19 5 13 2 -7 2
-19 0 -25z"/>
<path d="M2224 3065 c-18 -56 -18 -57 1 -71 44 -33 165 -6 165 37 0 15 -17 28
-67 52 -38 17 -71 33 -75 35 -4 2 -15 -22 -24 -53z"/>
<path d="M2378 3103 c-22 -6 -23 -19 -2 -27 26 -10 34 -7 34 14 0 20 -2 21
-32 13z"/>
<path d="M2675 3098 c-11 -33 -35 -123 -35 -130 0 -4 26 -21 58 -37 31 -17 51
-30 44 -31 -7 0 -25 6 -40 14 -65 33 -69 31 -81 -25 -13 -60 -6 -75 43 -84 25
-5 42 0 74 21 23 15 42 34 42 43 0 8 11 31 24 50 29 44 42 81 26 81 -6 0 -23
-8 -38 -17 l-27 -18 28 33 c41 50 36 66 -29 91 -64 24 -83 26 -89 9z"/>
<path d="M2070 3066 c0 -8 5 -18 10 -21 6 -3 10 1 10 9 0 8 -4 18 -10 21 -5 3
-10 -1 -10 -9z"/>
<path d="M2887 2974 c-13 -13 -7 -71 8 -84 13 -11 15 -8 14 21 -1 41 -12 73
-22 63z"/>
<path d="M3290 2943 c-19 -70 -23 -122 -10 -138 20 -25 30 -17 30 23 0 21 7
48 16 60 13 18 13 29 4 57 -15 45 -26 44 -40 -2z"/>
<path d="M3359 2943 c-1 -5 0 -16 1 -26 1 -10 -6 -29 -15 -43 -18 -28 -17
-105 1 -111 11 -4 54 116 54 149 0 14 -39 43 -41 31z"/>
<path d="M2861 2848 c-6 -18 -13 -52 -17 -76 -6 -35 -3 -45 12 -57 33 -25 36
-17 28 58 -4 39 -7 80 -6 90 1 26 -5 20 -17 -15z"/>
<path d="M2894 2829 c3 -17 6 -35 6 -40 0 -5 4 -9 9 -9 15 0 23 51 10 66 -20
24 -32 16 -25 -17z"/>
<path d="M2747 2807 c-29 -24 -27 -37 5 -37 15 0 38 34 38 56 0 9 -17 2 -43
-19z"/>
<path d="M3243 2763 c-3 -8 -3 -38 -1 -68 3 -30 1 -52 -4 -49 -4 3 -8 12 -8
20 0 8 -4 12 -10 9 -16 -10 -12 -45 6 -45 9 0 25 -11 36 -25 11 -14 25 -24 30
-23 9 3 38 74 51 130 6 24 3 30 -25 45 -42 21 -68 24 -75 6z"/>
<path d="M3196 2609 c-17 -52 -16 -87 3 -110 l20 -24 2 45 1 45 13 -53 c11
-49 29 -82 38 -71 3 2 7 30 11 61 6 53 4 58 -16 69 -13 6 -33 21 -45 32 -18
16 -23 17 -27 6z"/>
<path d="M1325 2746 c-76 -15 -125 -35 -125 -51 0 -17 45 -35 90 -35 75 0 270
58 270 80 0 21 -141 25 -235 6z m165 -20 c0 -2 -11 -6 -25 -8 -13 -3 -22 -1
-19 3 5 9 44 13 44 5z"/>
<path d="M675 2710 c23 -9 50 -38 43 -45 -3 -3 -18 5 -34 17 l-29 23 24 -34
c14 -19 44 -42 70 -53 25 -11 54 -28 65 -37 18 -15 18 -15 11 9 -4 14 -14 35
-21 48 -22 34 -94 82 -123 81 -24 0 -24 -1 -6 -9z"/>
<path d="M1538 2483 c23 -2 59 -2 80 0 20 2 1 4 -43 4 -44 0 -61 -2 -37 -4z"/>
<path d="M720 2459 c14 -11 44 -38 67 -60 22 -21 44 -39 47 -39 16 0 -31 53
-74 85 -51 37 -82 48 -40 14z"/>
<path d="M712 1858 c5 -15 68 -24 68 -10 0 10 -32 22 -58 22 -8 0 -12 -6 -10
-12z"/>
<path d="M1830 1841 c0 -20 13 -41 21 -35 15 9 10 44 -6 44 -8 0 -15 -4 -15
-9z"/>
<path d="M1760 1826 c0 -8 5 -18 10 -21 6 -3 10 3 10 14 0 12 -4 21 -10 21 -5
0 -10 -6 -10 -14z"/>
<path d="M837 1472 c19 -35 43 -61 43 -46 0 5 -14 25 -31 44 l-31 35 19 -33z"/>
<path d="M930 1140 c14 -25 45 -42 73 -38 18 2 14 8 -27 31 -58 32 -60 33 -46
7z"/>
<path d="M1050 1101 c0 -3 33 -17 73 -30 82 -26 127 -24 63 4 -42 18 -136 36
-136 26z"/>
<path d="M2990 1990 c-6 -12 -9 -24 -7 -27 3 -2 11 5 17 17 6 12 9 24 7 27 -3
2 -11 -5 -17 -17z"/>
<path d="M3172 1880 c0 -14 2 -19 5 -12 2 6 2 18 0 25 -3 6 -5 1 -5 -13z"/>
<path d="M3065 1805 c4 -11 9 -32 12 -48 3 -15 10 -30 15 -33 12 -8 -1 44 -19
76 -9 16 -12 18 -8 5z"/>
<path d="M2988 1738 c13 -13 76 -23 69 -11 -4 6 -23 13 -42 15 -19 2 -31 0
-27 -4z"/>
<path d="M3180 1646 c0 -7 -16 -35 -36 -62 l-36 -49 41 42 c23 23 41 51 41 63
0 11 -2 20 -5 20 -3 0 -5 -6 -5 -14z"/>
<path d="M2970 1460 c-19 -11 -28 -19 -20 -20 8 0 29 9 45 20 38 25 21 25 -25
0z"/>
<path d="M1940 570 c0 -8 5 -22 10 -30 9 -13 10 -13 10 0 0 8 -5 22 -10 30 -9
13 -10 13 -10 0z"/>
<path d="M1961 515 c1 -19 18 -51 18 -35 0 8 -4 22 -9 30 -5 8 -9 11 -9 5z"/>
</g>
</svg>
